<svg xmlns="http://www.w3.org/2000/svg" width="200" height="70" viewBox="0 0 52.917 18.521"><path fill="#52b60b" d="M1.66 1.86h11.847v14.81H1.66z"/><path d="M9.9 14.27H5.54l.696-4.5c-1.048-.465-1.778-1.476-1.778-2.62 0-1.59 1.398-2.897 3.123-2.897s3.122 1.282 3.122 2.873c0 1.068-.638 2.05-1.574 2.546z" fill="#fff"/><g fill="#7c916f"><path d="M17.08 14.2q0-.34-.14-.533-.14-.195-.384-.195-.245 0-.386.195-.14.193-.14.533 0 .34.14.535.14.193.386.193.245 0 .384-.193.14-.195.14-.535zm-1.05-.656q.097-.168.245-.248.15-.082.356-.082.342 0 .555.272.215.272.215.715 0 .443-.215.715-.213.272-.555.272-.206 0-.356-.08-.148-.082-.245-.25v.282h-.3v-2.6h.3zm3.5.576v.15H18.1q.02.32.2.486.173.166.48.166.178 0 .344-.044.168-.044.332-.13v.292q-.166.07-.34.107-.174.037-.354.037-.45 0-.713-.262-.262-.262-.262-.708 0-.46.248-.73.25-.272.673-.272.38 0 .6.245.22.243.22.663zm-.3-.1q-.003-.253-.143-.404-.138-.15-.366-.15-.258 0-.414.146-.154.146-.178.4zm3.1-.7v.292q-.13-.067-.272-.1-.14-.034-.292-.034-.23 0-.346.07-.114.07-.114.2 0 .107.082.17.082.06.33.116l.106.023q.33.07.466.2.14.127.14.357 0 .262-.208.414-.206.153-.57.153-.15 0-.315-.03-.163-.03-.344-.087v-.32q.17.1.337.134.166.044.33.044.218 0 .335-.074.117-.076.117-.2 0-.126-.086-.193-.084-.067-.37-.13l-.107-.025q-.287-.06-.414-.185-.127-.126-.127-.344 0-.265.188-.4.188-.144.533-.144.17 0 .322.025.15.025.278.076zm2.2.8v.15H23.1q.02.32.2.486.173.166.48.166.178 0 .344-.044.168-.044.332-.13v.292q-.166.07-.34.107-.174.037-.354.037-.45 0-.713-.262-.262-.262-.262-.708 0-.46.248-.73.25-.272.673-.272.38 0 .6.245.22.243.22.663zm-.3-.1q-.003-.253-.143-.404-.138-.15-.366-.15-.258 0-.414.146-.154.146-.178.4z"/><path d="M26.38 13.32v.3q-.13-.072-.263-.107-.13-.037-.265-.037-.3 0-.466.2-.166.2-.166.533 0 .344.166.535.166.2.466.2.134 0 .265-.035.133-.037.263-.1v.285q-.13.06-.268.1-.138.03-.294.03-.424 0-.674-.267-.25-.267-.25-.72 0-.46.252-.723.253-.263.693-.263.143 0 .278.03.136.028.263.087zm.52 1.07v-1.137h.3v1.126q0 .267.104.4.104.133.312.133.25 0 .394-.16.146-.16.146-.434v-1.065h.3v1.88h-.3v-.3q-.112.17-.262.255-.148.082-.344.082-.324 0-.492-.2-.168-.2-.168-.6zm.777-1.183zm2.523.333q-.052-.03-.114-.044-.06-.015-.134-.015-.262 0-.403.17-.14.17-.14.488v1h-.3v-1.88h.3v.292q.097-.17.253-.253.156-.084.38-.084.032 0 .07.005.04.003.085.012zm1.85.57v.15h-1.42q.02.32.2.486.173.166.48.166.178 0 .344-.044.168-.044.332-.13v.292q-.166.07-.34.107-.174.037-.354.037-.45 0-.713-.262-.262-.262-.262-.708 0-.46.248-.73.25-.272.673-.272.38 0 .6.245.22.243.22.663zm-.3-.1q-.003-.253-.143-.404-.138-.15-.366-.15-.258 0-.414.146-.154.146-.178.4z"/></g><path d="M568.68 501.15l6.054.75q-1.432 5.305-5.305 8.234-3.873 2.93-9.894 2.93-7.583 0-12.042-4.654-4.426-4.687-4.426-13.116 0-8.723 4.492-13.54 4.5-4.817 11.652-4.817 6.933 0 11.326 4.72 4.394 4.72 4.394 13.28 0 .52-.033 1.562H549.12q.325 5.696 3.222 8.723 2.897 3.027 7.225 3.027 3.222 0 5.5-1.692 2.278-1.692 3.613-5.403zm-19.235-9.47h19.3q-.4-4.36-2.213-6.542-2.8-3.385-7.258-3.385-4.036 0-6.802 2.7-2.734 2.7-3.027 7.225zm35.255 5.27l5.956-.52q.423 3.58 1.953 5.9 1.562 2.278 4.817 3.7 3.255 1.4 7.323 1.4 3.613 0 6.38-1.074 2.766-1.074 4.1-2.93 1.367-1.888 1.367-4.1 0-2.246-1.302-3.906-1.302-1.692-4.296-2.832-1.92-.75-8.495-2.3-6.575-1.595-9.2-2.994-3.417-1.8-5.1-4.426-1.66-2.67-1.66-5.956 0-3.613 2.05-6.737 2.05-3.157 6-4.784 3.938-1.627 8.755-1.627 5.305 0 9.34 1.725 4.068 1.692 6.25 5.012 2.18 3.32 2.343 7.518l-6.054.456q-.488-4.524-3.32-6.835-2.8-2.3-8.3-2.3-5.728 0-8.365 2.116-2.604 2.083-2.604 5.045 0 2.57 1.855 4.23 1.823 1.66 9.504 3.417 7.714 1.725 10.578 3.027 4.166 1.92 6.15 4.882 1.985 2.93 1.985 6.77 0 3.808-2.18 7.193-2.18 3.352-6.282 5.24-4.068 1.855-9.178 1.855-6.477 0-10.87-1.888-4.36-1.888-6.867-5.663-2.474-3.808-2.604-8.592zm47.74-25.65v-6.737h5.858v6.737zm0 40.977v-34.565h5.858v34.565zm24.48 7.553s3.44 1.627 5.956 1.627c2.712 0 4.806-.542 6.282-1.627s2.474-2.604 2.994-4.557c.304-1.193.445-3.7.423-7.518-2.56 3.016-5.75 4.524-9.57 4.524-4.752 0-8.43-1.714-11.033-5.142s-3.906-7.54-3.906-12.335c0-3.298.597-6.336 1.8-9.113 1.193-2.8 2.918-4.958 5.175-6.477 2.278-1.52 4.947-2.278 8.007-2.278 4.08 0 7.442 1.65 10.1 4.947v-4.166h5.403v29.878c0 5.38-.553 9.2-1.66 11.424-1.085 2.257-2.82 4.036-5.207 5.338-2.365 1.302-5.284 1.953-8.755 1.953-4.123 0-9.992-2.8-9.992-2.8zm-2.832-25.452c0 4.535.9 7.844 2.7 9.927s4.058 3.125 6.77 3.125c2.7 0 4.947-1.03 6.77-3.092 1.823-2.083 2.734-5.338 2.734-9.764 0-4.23-.944-7.42-2.832-9.57-1.866-2.148-4.123-3.222-6.77-3.222-2.604 0-4.817 1.063-6.64 3.2-1.823 2.105-2.734 5.24-2.734 9.406zM515.94 477.03c-1.67.1-3.248.416-4.68 1.044-1.757.738-3.075 1.715-3.943 2.93s-1.472 2.657-1.82 4.327c-.217 1.085-.33 2.982-.33 5.695v21.252h5.86V491.25c0-2.387.228-4.163.684-5.334.456-1.193 1.27-2.138 2.44-2.832.547-.34 1.148-.6 1.788-.77 1.7-.268 3.744-.65 6.586 0a6.83 6.83 0 0 1 1.788.769c1.172.694 1.986 1.64 2.44 2.832.456 1.172.684 2.948.684 5.334v21.027h5.86v-21.252c0-2.712-.112-4.6-.33-5.695-.347-1.67-.95-3.112-1.82-4.327s-2.185-2.192-3.943-2.93c-1.434-.627-3-.934-4.68-1.044-3.3-.2-3.458-.206-6.586 0zm183.13 0c-1.67.1-3.248.416-4.68 1.044-1.758.738-3.075 1.715-3.943 2.93s-1.472 2.657-1.82 4.327c-.217 1.085-.33 2.982-.33 5.695v21.252h5.86V491.25c0-2.387.228-4.163.684-5.334.456-1.193 1.27-2.138 2.44-2.832.547-.34 1.148-.6 1.788-.77 1.7-.268 3.744-.65 6.586 0a6.83 6.83 0 0 1 1.788.769c1.172.694 1.986 1.64 2.44 2.832.456 1.172.684 2.948.684 5.334v21.027h5.86v-21.252c0-2.712-.112-4.6-.33-5.695-.347-1.67-.95-3.112-1.82-4.327s-2.185-2.192-3.943-2.93c-1.434-.627-3-.934-4.68-1.044-3.3-.2-3.458-.206-6.586 0zm-249.3 12q0-11.88 6.38-18.584 6.38-6.737 16.47-6.737 6.607 0 11.912 3.157 5.305 3.157 8.072 8.82 2.8 5.63 2.8 12.8 0 7.258-2.93 12.986-2.93 5.728-8.3 8.7-5.37 2.93-11.587 2.93-6.737 0-12.042-3.255-5.305-3.255-8.04-8.885-2.734-5.63-2.734-11.912zm6.5.098q0 8.625 4.622 13.605 4.654 4.947 11.652 4.947 7.128 0 11.717-5.012 4.622-5.012 4.622-14.223 0-5.826-1.985-10.155-1.953-4.36-5.76-6.737-3.775-2.4-8.495-2.4-6.705 0-11.554 4.622-4.817 4.6-4.817 15.362z" transform="matrix(.13326 0 0 .13326 -44.217411 -56.708743)" fill="#5aa02c"/></svg>